<svg width="1440" height="773" viewBox="0 0 1440 773" fill="none" xmlns="http://www.w3.org/2000/svg">
<g filter="url(#filter0_d_11_21)">
<path d="M-4 39.192L62.76 17.6779C98.8424 6.04997 137.487 4.91653 174.188 14.4097L219.583 26.1514C252.643 34.7026 287.342 34.6465 320.374 25.9886L372.085 12.435C403.553 4.18709 436.558 3.73965 468.238 11.1315L538.93 27.626C571.458 35.2157 605.369 34.5378 637.568 25.6542L678.969 14.2315C713.047 4.82949 749.008 4.62777 783.188 13.6469L826.337 25.0323C861.449 34.297 898.421 33.8274 933.286 23.6737L957.437 16.6403C994.987 5.70464 1034.92 6.01847 1072.29 17.5429L1087.5 22.2312C1123.44 33.3135 1161.77 34.0376 1198.1 24.3203L1237.74 13.7204C1271.65 4.65086 1307.35 4.66607 1341.25 13.7645L1436 39.192V546.876C1436 657.333 1346.46 746.876 1236 746.876H196C85.5431 746.876 -4 657.333 -4 546.876V39.192Z" fill="white"/>
</g>
<defs>
<filter id="filter0_d_11_21" x="-19.9" y="-9.72748e-05" width="1471.8" height="772.776" filterUnits="userSpaceOnUse" color-interpolation-filters="sRGB">
<feFlood flood-opacity="0" result="BackgroundImageFix"/>
<feColorMatrix in="SourceAlpha" type="matrix" values="0 0 0 0 0 0 0 0 0 0 0 0 0 0 0 0 0 0 127 0" result="hardAlpha"/>
<feOffset dy="10"/>
<feGaussianBlur stdDeviation="7.95"/>
<feComposite in2="hardAlpha" operator="out"/>
<feColorMatrix type="matrix" values="0 0 0 0 0 0 0 0 0 0 0 0 0 0 0 0 0 0 0.29 0"/>
<feBlend mode="normal" in2="BackgroundImageFix" result="effect1_dropShadow_11_21"/>
<feBlend mode="normal" in="SourceGraphic" in2="effect1_dropShadow_11_21" result="shape"/>
</filter>
</defs>
</svg>
