<svg id="visual" viewBox="0 0 960 540" width="960" height="540" xmlns="http://www.w3.org/2000/svg" xmlns:xlink="http://www.w3.org/1999/xlink" version="1.1"><rect x="0" y="0" width="960" height="540" fill="#002233"></rect><path d="M0 448L16 445C32 442 64 436 96 436.8C128 437.7 160 445.3 192 447.3C224 449.3 256 445.7 288 440.3C320 435 352 428 384 436.3C416 444.7 448 468.3 480 476.8C512 485.3 544 478.7 576 469.3C608 460 640 448 672 452.2C704 456.3 736 476.7 768 481.5C800 486.3 832 475.7 864 472.8C896 470 928 475 944 477.5L960 480L960 541L944 541C928 541 896 541 864 541C832 541 800 541 768 541C736 541 704 541 672 541C640 541 608 541 576 541C544 541 512 541 480 541C448 541 416 541 384 541C352 541 320 541 288 541C256 541 224 541 192 541C160 541 128 541 96 541C64 541 32 541 16 541L0 541Z" fill="#0066FF" stroke-linecap="round" stroke-linejoin="miter"></path></svg>